# xmcd CD database file
#
# Track frame offsets:
#	150
#	45421
#	75658
#	112188
#	144421
#	170217
#	205012
#	234439
#	285657
#	314185
#
# Disc length: 4656 seconds
#
# Revision: 0
# Processed by: cddbd v1.5.1PL0 Copyright (c) Steve Scherf et al.
# Submitted via: CDex 1.51
#
DISCID=90122e0a
DTITLE=Sonny Rollins - Tenor Madness - The very Best of Sonny Rollins CD2
DYEAR=2005
DGENRE=Jazz
TTITLE0=Poinciana
TTITLE1=Isn't she Lovely
TTITLE2=A Child's Prayer
TTITLE3=Harlem Boys
TTITLE4=The very Thought of You
TTITLE5=No Problem
TTITLE6=I'm Old Fashioned
TTITLE7=Don't stop the Carnival
TTITLE8=Tennessee Waltz
TTITLE9=I wish I knew
EXTD=YEAR: 2005
EXTT0=
EXTT1=
EXTT2=
EXTT3=
EXTT4=
EXTT5=
EXTT6=
EXTT7=
EXTT8=
EXTT9=
PLAYORDER=
